<svg width="44" height="44" viewBox="0 0 44 44" fill="none" xmlns="http://www.w3.org/2000/svg">
<path d="M33 27.4998V40.3332M39.4167 33.9165H26.5833M12.8333 29.3332H20.1667M12.8333 20.1665H27.5M11.9167 6.4165C9.06399 6.50267 7.36449 6.81984 6.18749 7.99684C4.57599 9.61017 4.57599 12.2043 4.57599 17.3945V29.3222C4.57599 34.5142 4.57599 37.1083 6.18749 38.7217C7.79716 40.3332 10.3913 40.3332 15.576 40.3332H21.0833M28.402 6.4165C31.2547 6.50267 32.956 6.81984 34.1312 7.99684C35.7445 9.61017 35.7445 12.2043 35.7445 17.3945V21.9998" stroke="#827CF1" stroke-width="4" stroke-linecap="round" stroke-linejoin="round"/>
<path d="M11.9093 6.87484C11.9093 5.10384 13.3466 3.6665 15.1176 3.6665H25.201C26.0519 3.6665 26.8679 4.00452 27.4696 4.6062C28.0713 5.20788 28.4093 6.02393 28.4093 6.87484C28.4093 7.72574 28.0713 8.54179 27.4696 9.14347C26.8679 9.74515 26.0519 10.0832 25.201 10.0832H15.1176C14.2667 10.0832 13.4507 9.74515 12.849 9.14347C12.2473 8.54179 11.9093 7.72574 11.9093 6.87484Z" stroke="#827CF1" stroke-width="4" stroke-linecap="round" stroke-linejoin="round"/>
</svg>
